<svg xmlns="http://www.w3.org/2000/svg" version="1.1" xmlns:xlink="http://www.w3.org/1999/xlink" xmlns:svgjs="http://svgjs.com/svgjs" width="1440" height="560" preserveAspectRatio="none" viewBox="0 0 1440 560"><g mask="url(&quot;#SvgjsMask1000&quot;)" fill="none"><rect width="1440" height="560" x="0" y="0" fill="#0e2a47"></rect><path d="M 0,230 C 57.6,211.6 172.8,142.2 288,138 C 403.2,133.8 460.8,218.2 576,209 C 691.2,199.8 748.8,102.4 864,92 C 979.2,81.6 1036.8,160.2 1152,157 C 1267.2,153.8 1382.4,92.2 1440,76L1440 560L0 560z" fill="#184a7e"></path><path d="M 0,408 C 96,429.8 288,530.6 480,517 C 672,503.4 768,339.2 960,340 C 1152,340.8 1344,484.8 1440,521L1440 560L0 560z" fill="#2264ab"></path></g><defs><mask id="SvgjsMask1000"><rect width="1440" height="560" fill="#ffffff"></rect></mask></defs></svg>